<svg width="288" height="40" viewBox="0 0 288 40" fill="none" xmlns="http://www.w3.org/2000/svg">
<path d="M61.82 30V16.112H64.984L65.264 18.464C65.6933 17.6427 66.3093 16.9893 67.112 16.504C67.9333 16.0187 68.8947 15.776 69.996 15.776C71.7133 15.776 73.048 16.3173 74 17.4C74.952 18.4827 75.428 20.0693 75.428 22.16V30H71.844V22.496C71.844 21.3013 71.6013 20.3867 71.116 19.752C70.6307 19.1173 69.8747 18.8 68.848 18.8C67.84 18.8 67.0093 19.1547 66.356 19.864C65.7213 20.5733 65.404 21.5627 65.404 22.832V30H61.82ZM92.2392 16.112V30H89.0752L88.7952 27.648C88.3658 28.4693 87.7405 29.1227 86.9192 29.608C86.1165 30.0933 85.1645 30.336 84.0632 30.336C82.3458 30.336 81.0112 29.7947 80.0592 28.712C79.1072 27.6293 78.6312 26.0427 78.6312 23.952V16.112H82.2152V23.616C82.2152 24.8107 82.4578 25.7253 82.9432 26.36C83.4285 26.9947 84.1845 27.312 85.2112 27.312C86.2192 27.312 87.0405 26.9573 87.6752 26.248C88.3285 25.5387 88.6552 24.5493 88.6552 23.28V16.112H92.2392ZM94.5743 30L99.6143 23.056L94.5743 16.112H98.4103L101.938 21.04L105.438 16.112H109.302L104.234 23.056L109.302 30H105.438L101.938 25.072L98.4103 30H94.5743ZM117.774 30C116.318 30 115.151 29.6453 114.274 28.936C113.396 28.2267 112.958 26.9667 112.958 25.156V19.108H110.578V16.112H112.958L113.378 12.388H116.542V16.112H120.294V19.108H116.542V25.184C116.542 25.856 116.682 26.3227 116.962 26.584C117.26 26.8267 117.764 26.948 118.474 26.948H120.21V30H117.774ZM122.195 33.108L129.195 8.244H132.695L125.667 33.108H122.195Z" fill="white"/>
<path d="M141.344 30C139.888 30 138.721 29.6453 137.844 28.936C136.967 28.2267 136.528 26.9667 136.528 25.156V19.108H134.148V16.112H136.528L136.948 12.388H140.112V16.112H143.864V19.108H140.112V25.184C140.112 25.856 140.252 26.3227 140.532 26.584C140.831 26.8267 141.335 26.948 142.044 26.948H143.78V30H141.344ZM151.729 30.336C150.534 30.336 149.554 30.1493 148.789 29.776C148.024 29.384 147.454 28.8707 147.081 28.236C146.708 27.6013 146.521 26.9013 146.521 26.136C146.521 24.848 147.025 23.8027 148.033 23C149.041 22.1973 150.553 21.796 152.569 21.796H156.097V21.46C156.097 20.508 155.826 19.808 155.285 19.36C154.744 18.912 154.072 18.688 153.269 18.688C152.541 18.688 151.906 18.8653 151.365 19.22C150.824 19.556 150.488 20.06 150.357 20.732H146.857C146.95 19.724 147.286 18.8467 147.865 18.1C148.462 17.3533 149.228 16.784 150.161 16.392C151.094 15.9813 152.14 15.776 153.297 15.776C155.276 15.776 156.834 16.2707 157.973 17.26C159.112 18.2493 159.681 19.6493 159.681 21.46V30H156.629L156.293 27.76C155.882 28.5067 155.304 29.1227 154.557 29.608C153.829 30.0933 152.886 30.336 151.729 30.336ZM152.541 27.536C153.568 27.536 154.361 27.2 154.921 26.528C155.5 25.856 155.864 25.0253 156.013 24.036H152.961C152.009 24.036 151.328 24.2133 150.917 24.568C150.506 24.904 150.301 25.324 150.301 25.828C150.301 26.3693 150.506 26.7893 150.917 27.088C151.328 27.3867 151.869 27.536 152.541 27.536ZM165.033 13.956C164.38 13.956 163.839 13.76 163.409 13.368C162.999 12.976 162.793 12.4813 162.793 11.884C162.793 11.2867 162.999 10.8013 163.409 10.428C163.839 10.036 164.38 9.84 165.033 9.84C165.687 9.84 166.219 10.036 166.629 10.428C167.059 10.8013 167.273 11.2867 167.273 11.884C167.273 12.4813 167.059 12.976 166.629 13.368C166.219 13.76 165.687 13.956 165.033 13.956ZM163.241 30V16.112H166.825V30H163.241ZM170.566 30V9.84H174.15V30H170.566ZM180.528 30L176.468 16.112H180.024L182.432 26.108L185.232 16.112H189.208L192.008 26.108L194.444 16.112H198L193.912 30H190.188L187.22 19.612L184.252 30H180.528ZM202.193 13.956C201.54 13.956 200.999 13.76 200.569 13.368C200.159 12.976 199.953 12.4813 199.953 11.884C199.953 11.2867 200.159 10.8013 200.569 10.428C200.999 10.036 201.54 9.84 202.193 9.84C202.847 9.84 203.379 10.036 203.789 10.428C204.219 10.8013 204.433 11.2867 204.433 11.884C204.433 12.4813 204.219 12.976 203.789 13.368C203.379 13.76 202.847 13.956 202.193 13.956ZM200.401 30V16.112H203.985V30H200.401ZM207.726 30V16.112H210.89L211.17 18.464C211.6 17.6427 212.216 16.9893 213.018 16.504C213.84 16.0187 214.801 15.776 215.902 15.776C217.62 15.776 218.954 16.3173 219.906 17.4C220.858 18.4827 221.334 20.0693 221.334 22.16V30H217.75V22.496C217.75 21.3013 217.508 20.3867 217.022 19.752C216.537 19.1173 215.781 18.8 214.754 18.8C213.746 18.8 212.916 19.1547 212.262 19.864C211.628 20.5733 211.31 21.5627 211.31 22.832V30H207.726ZM231.145 30.336C229.839 30.336 228.672 30.0187 227.645 29.384C226.619 28.7493 225.807 27.8813 225.209 26.78C224.612 25.6787 224.313 24.428 224.313 23.028C224.313 21.628 224.612 20.3867 225.209 19.304C225.807 18.2027 226.619 17.344 227.645 16.728C228.672 16.0933 229.839 15.776 231.145 15.776C232.191 15.776 233.105 15.972 233.889 16.364C234.673 16.756 235.308 17.3067 235.793 18.016V9.84H239.377V30H236.185L235.793 28.012C235.345 28.628 234.748 29.1693 234.001 29.636C233.273 30.1027 232.321 30.336 231.145 30.336ZM231.901 27.2C233.059 27.2 234.001 26.8173 234.729 26.052C235.476 25.268 235.849 24.2693 235.849 23.056C235.849 21.8427 235.476 20.8533 234.729 20.088C234.001 19.304 233.059 18.912 231.901 18.912C230.763 18.912 229.82 19.2947 229.073 20.06C228.327 20.8253 227.953 21.8147 227.953 23.028C227.953 24.2413 228.327 25.24 229.073 26.024C229.82 26.808 230.763 27.2 231.901 27.2Z" fill="#38B2AC"/>
<path fill-rule="evenodd" clip-rule="evenodd" d="M12.5 15C14.1667 8.33333 18.3333 5 25 5C35 5 36.25 12.5 41.25 13.75C44.5833 14.5833 47.5 13.3333 50 10C48.3333 16.6667 44.1667 20 37.5 20C27.5 20 26.25 12.5 21.25 11.25C17.9167 10.4167 15 11.6667 12.5 15V15ZM0 30C1.66667 23.3333 5.83333 20 12.5 20C22.5 20 23.75 27.5 28.75 28.75C32.0833 29.5833 35 28.3333 37.5 25C35.8333 31.6667 31.6667 35 25 35C15 35 13.75 27.5 8.75 26.25C5.41667 25.4167 2.5 26.6667 0 30V30Z" fill="url(#paint0_linear)"/>
<defs>
<linearGradient id="paint0_linear" x1="0" y1="5" x2="26.4706" y2="49.1176" gradientUnits="userSpaceOnUse">
<stop stop-color="#2298BD"/>
<stop offset="1" stop-color="#0ED7B5"/>
</linearGradient>
</defs>
</svg>
